<?xml version="1.0" encoding="UTF-8"?>
<svg xmlns="http://www.w3.org/2000/svg" width="160" height="64" viewBox="0 0 160 64" role="img" aria-label="BBB Accredited Business badge">
  <defs>
    <linearGradient id="g" x1="0" y1="0" x2="1" y2="1">
      <stop offset="0%" stop-color="#1e3a8a"/>
      <stop offset="100%" stop-color="#2563eb"/>
    </linearGradient>
  </defs>
  <rect x="0.5" y="0.5" width="159" height="63" rx="8" ry="8" fill="url(#g)" stroke="#1e40af"/>
  <!-- Simple torch-like icon (not the official BBB mark) -->
  <g transform="translate(16,12)">
    <path d="M16 0c-3 3-4 6-1 9-6 2-7 8-3 12-6 2-7 8-3 12h12c4-4 3-10-3-12 4-4 3-10-3-12 3-3 2-6 1-9z" fill="#ffffff" opacity="0.9"/>
    <rect x="9" y="40" width="14" height="3" rx="1.5" fill="#bfdbfe"/>
  </g>
  <text x="88" y="28" text-anchor="middle" font-family="-apple-system, BlinkMacSystemFont, 'Segoe UI', Roboto, Arial, sans-serif" font-size="14" font-weight="800" fill="#ffffff">BBB ACCREDITED</text>
  <text x="88" y="46" text-anchor="middle" font-family="-apple-system, BlinkMacSystemFont, 'Segoe UI', Roboto, Arial, sans-serif" font-size="12" font-weight="600" fill="#dbeafe">BUSINESS</text>
</svg>
